<?xml version="1.0" encoding="UTF-8" standalone="no"?>
<!-- Created with Inkscape (http://www.inkscape.org/) -->

<svg
   xmlns:dc="http://purl.org/dc/elements/1.1/"
   xmlns:cc="http://creativecommons.org/ns#"
   xmlns:rdf="http://www.w3.org/1999/02/22-rdf-syntax-ns#"
   xmlns:svg="http://www.w3.org/2000/svg"
   xmlns="http://www.w3.org/2000/svg"
   xmlns:sodipodi="http://sodipodi.sourceforge.net/DTD/sodipodi-0.dtd"
   xmlns:inkscape="http://www.inkscape.org/namespaces/inkscape"
   width="512"
   height="512"
   viewBox="0 0 135.46666 135.46667"
   version="1.1"
   id="svg8"
   sodipodi:docname="favicon.svg"
   inkscape:version="0.92.5 (2060ec1f9f, 2020-04-08)"
   inkscape:export-filename="/home/dmpop/favicon.png"
   inkscape:export-xdpi="96"
   inkscape:export-ydpi="96">
  <defs
     id="defs2" />
  <sodipodi:namedview
     id="base"
     pagecolor="#ffffff"
     bordercolor="#666666"
     borderopacity="1.0"
     inkscape:pageopacity="0.0"
     inkscape:pageshadow="2"
     inkscape:zoom="0.35"
     inkscape:cx="-594.28571"
     inkscape:cy="558.583"
     inkscape:document-units="mm"
     inkscape:current-layer="layer1"
     showgrid="false"
     units="px"
     inkscape:window-width="1366"
     inkscape:window-height="705"
     inkscape:window-x="0"
     inkscape:window-y="0"
     inkscape:window-maximized="1" />
  <metadata
     id="metadata5">
    <rdf:RDF>
      <cc:Work
         rdf:about="">
        <dc:format>image/svg+xml</dc:format>
        <dc:type
           rdf:resource="http://purl.org/dc/dcmitype/StillImage" />
        <dc:title />
      </cc:Work>
    </rdf:RDF>
  </metadata>
  <g
     inkscape:label="Layer 1"
     inkscape:groupmode="layer"
     id="layer1"
     transform="translate(0,-161.53332)">
    <path
       inkscape:connector-curvature="0"
       style="opacity:1;fill:#e6e6e6;fill-opacity:1;stroke:#000000;stroke-width:3.21858311;stroke-miterlimit:4;stroke-dasharray:none;stroke-opacity:1"
       d="m 56.383652,292.55136 a 50.995738,48.06975 0 0 0 1.465848,-1.21383 50.995738,48.06975 0 0 0 3.474607,-3.51575 50.995738,48.06975 0 0 0 3.084857,-3.82493 50.995738,48.06975 0 0 0 2.664246,-4.09637 50.995738,48.06975 0 0 0 2.21735,-4.32669 50.995738,48.06975 0 0 0 1.748161,-4.51356 50.995738,48.06975 0 0 0 1.260687,-4.65586 50.995738,48.06975 0 0 0 0.761783,-4.75072 50.995738,48.06975 0 0 0 0.254883,-4.79931 50.995738,48.06975 0 0 0 -0.127442,-3.40031 50.995738,48.06975 0 0 0 -0.614342,-4.76958 50.995738,48.06975 0 0 0 -1.116673,-4.68844 50.995738,48.06975 0 0 0 -1.607006,-4.55985 50.995738,48.06975 0 0 0 -2.082479,-4.38554 50.995738,48.06975 0 0 0 -2.536235,-4.16839 50.995738,48.06975 0 0 0 -2.965415,-3.90836 50.995738,48.06975 0 0 0 -3.363742,-3.61005 50.995738,48.06975 0 0 0 -3.730057,-3.27516 50.995738,48.06975 0 0 0 -4.058092,-2.9077 50.995738,48.06975 0 0 0 -4.345543,-2.51166 50.995738,48.06975 0 0 0 -4.590139,-2.0899 50.995738,48.06975 0 0 0 -4.788441,-1.64759 50.995738,48.06975 0 0 0 -4.938743,-1.18868 50.995738,48.06975 0 0 0 -5.040466,-0.71835 50.995738,48.06975 0 0 0 -5.090756,-0.24002 50.995738,48.06975 0 0 0 -3.60719,0.12058 50.995738,48.06975 0 0 0 -5.060468,0.57891 50.995738,48.06975 0 0 0 -4.9736027,1.0521 50.995738,48.06975 0 0 0 -4.7135784,1.47671 c 0.4891614,2.19698 0.9876582,4.40494 1.6350083,6.80348 12.2563838,45.41192 27.0756388,67.06637 50.7829798,73.73482 z"
       id="path848" />
    <path
       inkscape:connector-curvature="0"
       style="opacity:1;fill:#e6e6e6;fill-opacity:1;stroke:#000000;stroke-width:3.21858311;stroke-miterlimit:4;stroke-dasharray:none;stroke-opacity:1"
       d="m 133.35305,235.6861 a 24.243871,29.259846 35.765652 0 0 -0.8978,-0.59034 24.243871,29.259846 35.765652 0 0 -2.15791,-1.1201 24.243871,29.259846 35.765652 0 0 -2.29335,-0.86237 24.243871,29.259846 35.765652 0 0 -2.4048,-0.59548 24.243871,29.259846 35.765652 0 0 -2.49337,-0.32346 24.243871,29.259846 35.765652 0 0 -2.55624,-0.048 24.243871,29.259846 35.765652 0 0 -2.59395,0.22859 24.243871,29.259846 35.765652 0 0 -2.60539,0.50176 24.243871,29.259846 35.765652 0 0 -2.59109,0.7715 24.243871,29.259846 35.765652 0 0 -2.5511,1.03209 24.243871,29.259846 35.765652 0 0 -2.4848,1.28241 24.243871,29.259846 35.765652 0 0 -2.3945,1.52128 24.243871,29.259846 35.765652 0 0 -2.28022,1.74359 24.243871,29.259846 35.765652 0 0 -2.14248,1.94875 24.243871,29.259846 35.765652 0 0 -1.984181,2.13506 24.243871,29.259846 35.765652 0 0 -1.805883,2.29907 24.243871,29.259846 35.765652 0 0 -1.160106,1.71501 24.243871,29.259846 35.765652 0 0 -1.460136,2.52652 24.243871,29.259846 35.765652 0 0 -1.237256,2.62596 24.243871,29.259846 35.765652 0 0 -1.002378,2.69911 24.243871,29.259846 35.765652 0 0 -0.757212,2.74425 24.243871,29.259846 35.765652 0 0 -0.504048,2.76368 24.243871,29.259846 35.765652 0 0 -0.24688,2.75397 24.243871,29.259846 35.765652 0 0 0.01372,2.71797 24.243871,29.259846 35.765652 0 0 0.27317,2.65396 24.243871,29.259846 35.765652 0 0 0.530905,2.56366 24.243871,29.259846 35.765652 0 0 0.782929,2.44823 24.243871,29.259846 35.765652 0 0 1.026953,2.30764 24.243871,29.259846 35.765652 0 0 1.261261,2.1442 24.243871,29.259846 35.765652 0 0 1.482421,1.95961 24.243871,29.259846 35.765652 0 0 1.688729,1.75502 24.243871,29.259846 35.765652 0 0 1.878459,1.53328 24.243871,29.259846 35.765652 0 0 1.434423,0.94295 24.243871,29.259846 35.765652 0 0 1.49671,0.77721 c 16.14958,-11.51492 28.14892,-31.48082 30.73541,-49.55658 z"
       id="path867" />
    <path
       inkscape:connector-curvature="0"
       style="opacity:1;fill:#ffffff;fill-opacity:1;stroke:#000000;stroke-width:3.21858311;stroke-miterlimit:4;stroke-dasharray:none;stroke-opacity:1"
       d="m 54.999524,163.8869 a 14.211926,11.285941 0 0 1 0.05029,0.0691 14.211926,11.285941 0 0 1 0.580627,1.02924 14.211926,11.285941 0 0 1 0.448041,1.07096 14.211926,11.285941 0 0 1 0.310886,1.10067 14.211926,11.285941 0 0 1 0.171445,1.11953 14.211926,11.285941 0 0 1 0.03543,0.79836 14.211926,11.285941 0 0 1 -0.07086,1.12696 14.211926,11.285941 0 0 1 -0.212591,1.11554 14.211926,11.285941 0 0 1 -0.35146,1.09324 14.211926,11.285941 0 0 1 -0.486901,1.05953 14.211926,11.285941 0 0 1 -0.617772,1.01552 14.211926,11.285941 0 0 1 -0.742928,0.9618 14.211926,11.285941 0 0 1 -0.859508,0.89837 14.211926,11.285941 0 0 1 -0.968089,0.82522 14.211926,11.285941 0 0 1 -1.067528,0.74464 14.211926,11.285941 0 0 1 -1.155533,0.65606 14.211926,11.285941 0 0 1 -1.232114,0.56177 14.211926,11.285941 0 0 1 -1.296691,0.46061 14.211926,11.285941 0 0 1 -1.348124,0.35546 14.211926,11.285941 0 0 1 -1.386417,0.24745 14.211926,11.285941 0 0 1 -1.409844,0.13602 14.211926,11.285941 0 0 1 -1.005808,0.028 14.211926,11.285941 0 0 1 -1.418415,-0.0566 14.211926,11.285941 0 0 1 -1.404701,-0.16859 14.211926,11.285941 0 0 1 -1.376699,-0.27888 14.211926,11.285941 0 0 1 -1.33441,-0.38689 14.211926,11.285941 0 0 1 -1.278974,-0.4909 14.211926,11.285941 0 0 1 -1.210968,-0.5892 14.211926,11.285941 0 0 1 -1.130964,-0.68292 14.211926,11.285941 0 0 1 -1.039523,-0.76922 14.211926,11.285941 0 0 1 -0.937802,-0.8475 14.211926,11.285941 0 0 1 -0.826362,-0.91723 14.211926,11.285941 0 0 1 -0.706924,-0.97895 14.211926,11.285941 0 0 1 -0.580053,-1.02981 14.211926,11.285941 0 0 1 -0.448041,-1.07038 14.211926,11.285941 0 0 1 -0.310886,-1.10067 14.211926,11.285941 0 0 1 -0.171442,-1.12011 14.211926,11.285941 0 0 1 -0.03543,-0.79836 14.211926,11.285941 0 0 1 0.07086,-1.12639 14.211926,11.285941 0 0 1 0.212591,-1.11553 14.211926,11.285941 0 0 1 0.35146,-1.09324 14.211926,11.285941 0 0 1 0.486905,-1.05953 14.211926,11.285941 0 0 1 0.03257,-0.0532 c -21.6483664,2.80878 -32.9937834,13.10576 -25.3612001,47.3861 a 50.995738,48.06975 0 0 1 4.7135784,-1.47671 50.995738,48.06975 0 0 1 4.9736027,-1.0521 50.995738,48.06975 0 0 1 5.060468,-0.57891 50.995738,48.06975 0 0 1 3.60719,-0.12058 50.995738,48.06975 0 0 1 5.090756,0.24002 50.995738,48.06975 0 0 1 5.040466,0.71835 50.995738,48.06975 0 0 1 4.938743,1.18868 50.995738,48.06975 0 0 1 4.788441,1.64759 50.995738,48.06975 0 0 1 4.590139,2.0899 50.995738,48.06975 0 0 1 4.345543,2.51166 50.995738,48.06975 0 0 1 4.058092,2.9077 50.995738,48.06975 0 0 1 3.730057,3.27516 50.995738,48.06975 0 0 1 3.363742,3.61005 50.995738,48.06975 0 0 1 2.965415,3.90836 50.995738,48.06975 0 0 1 2.536235,4.16839 50.995738,48.06975 0 0 1 2.082479,4.38554 50.995738,48.06975 0 0 1 1.607006,4.55985 50.995738,48.06975 0 0 1 1.116673,4.68844 50.995738,48.06975 0 0 1 0.614342,4.76958 50.995738,48.06975 0 0 1 0.127442,3.40031 50.995738,48.06975 0 0 1 -0.254883,4.79931 50.995738,48.06975 0 0 1 -0.761783,4.75072 50.995738,48.06975 0 0 1 -1.260687,4.65586 50.995738,48.06975 0 0 1 -1.748161,4.51356 50.995738,48.06975 0 0 1 -2.21735,4.32669 50.995738,48.06975 0 0 1 -2.664246,4.09637 50.995738,48.06975 0 0 1 -3.084857,3.82493 50.995738,48.06975 0 0 1 -3.474607,3.51575 50.995738,48.06975 0 0 1 -1.465848,1.21383 c 5.666435,1.59387 11.835476,2.34078 18.604575,2.34078 9.826744,0 19.279577,-3.69588 27.62941,-9.64946 a 24.243871,29.259846 35.765652 0 1 -1.49671,-0.77721 24.243871,29.259846 35.765652 0 1 -1.434416,-0.94295 24.243871,29.259846 35.765652 0 1 -1.878459,-1.53328 24.243871,29.259846 35.765652 0 1 -1.688729,-1.75502 24.243871,29.259846 35.765652 0 1 -1.482421,-1.95961 24.243871,29.259846 35.765652 0 1 -1.26126,-2.1442 24.243871,29.259846 35.765652 0 1 -1.026954,-2.30764 24.243871,29.259846 35.765652 0 1 -0.782929,-2.44823 24.243871,29.259846 35.765652 0 1 -0.530905,-2.56366 24.243871,29.259846 35.765652 0 1 -0.27317,-2.65396 24.243871,29.259846 35.765652 0 1 -0.01372,-2.71797 24.243871,29.259846 35.765652 0 1 0.24688,-2.75397 24.243871,29.259846 35.765652 0 1 0.504048,-2.76368 24.243871,29.259846 35.765652 0 1 0.757212,-2.74425 24.243871,29.259846 35.765652 0 1 1.002378,-2.69911 24.243871,29.259846 35.765652 0 1 1.237256,-2.62596 24.243871,29.259846 35.765652 0 1 1.460137,-2.52652 24.243871,29.259846 35.765652 0 1 1.160106,-1.71501 24.243871,29.259846 35.765652 0 1 1.805882,-2.29907 24.243871,29.259846 35.765652 0 1 1.984184,-2.13506 24.243871,29.259846 35.765652 0 1 2.14249,-1.94875 24.243871,29.259846 35.765652 0 1 2.28021,-1.74359 24.243871,29.259846 35.765652 0 1 2.39451,-1.52128 24.243871,29.259846 35.765652 0 1 2.48479,-1.28241 24.243871,29.259846 35.765652 0 1 2.5511,-1.03209 24.243871,29.259846 35.765652 0 1 2.59109,-0.7715 24.243871,29.259846 35.765652 0 1 2.60539,-0.50176 24.243871,29.259846 35.765652 0 1 2.59395,-0.22859 24.243871,29.259846 35.765652 0 1 2.55624,0.048 24.243871,29.259846 35.765652 0 1 2.49337,0.32346 24.243871,29.259846 35.765652 0 1 2.4048,0.59548 24.243871,29.259846 35.765652 0 1 2.29335,0.86237 24.243871,29.259846 35.765652 0 1 2.15792,1.1201 24.243871,29.259846 35.765652 0 1 0.89779,0.59034 c 0.8515,-5.95066 0.70055,-11.69969 -0.6812,-16.86956 -0.66022,-2.47025 -1.45474,-4.84895 -2.35907,-7.14751 a 33.857824,31.349837 0 0 1 -0.002,10e-4 33.857824,31.349837 0 0 1 -3.21173,0.98809 33.857824,31.349837 0 0 1 -3.30202,0.68634 33.857824,31.349837 0 0 1 -3.35974,0.37776 33.857824,31.349837 0 0 1 -2.39502,0.0783 33.857824,31.349837 0 0 1 -3.38031,-0.15658 33.857824,31.349837 0 0 1 -3.34602,-0.46805 33.857824,31.349837 0 0 1 -3.27916,-0.7755 33.857824,31.349837 0 0 1 -3.17916,-1.07438 33.857824,31.349837 0 0 1 -3.04771,-1.36299 33.857824,31.349837 0 0 1 -2.88541,-1.63786 33.857824,31.349837 0 0 1 -2.693963,-1.89675 33.857824,31.349837 0 0 1 -2.476228,-2.1362 33.857824,31.349837 0 0 1 -2.233922,-2.35393 33.857824,31.349837 0 0 1 -1.968752,-2.54881 33.857824,31.349837 0 0 1 -1.683585,-2.71853 33.857824,31.349837 0 0 1 -1.382414,-2.86027 33.857824,31.349837 0 0 1 -1.067528,-2.97399 33.857824,31.349837 0 0 1 -0.74121,-3.05742 33.857824,31.349837 0 0 1 -0.407467,-3.11057 33.857824,31.349837 0 0 1 -0.08515,-2.21792 33.857824,31.349837 0 0 1 0.169157,-3.12944 33.857824,31.349837 0 0 1 0.505762,-3.09857 33.857824,31.349837 0 0 1 0.837218,-3.03628 33.857824,31.349837 0 0 1 0.939516,-2.3825 c -10.132477,-3.952 -20.97419,-6.23062 -31.636065,-6.91721 z"
       id="path862" />
    <path
       inkscape:connector-curvature="0"
       style="opacity:1;fill:#e6e6e6;fill-opacity:1;stroke:#000000;stroke-width:3.21858311;stroke-miterlimit:4;stroke-dasharray:none;stroke-opacity:1"
       d="m 29.326864,164.62696 a 14.211926,11.285941 0 0 0 -0.03257,0.0532 14.211926,11.285941 0 0 0 -0.486905,1.05953 14.211926,11.285941 0 0 0 -0.35146,1.09324 14.211926,11.285941 0 0 0 -0.212591,1.11553 14.211926,11.285941 0 0 0 -0.07086,1.12639 14.211926,11.285941 0 0 0 0.03543,0.79836 14.211926,11.285941 0 0 0 0.171442,1.12011 14.211926,11.285941 0 0 0 0.310886,1.10067 14.211926,11.285941 0 0 0 0.448041,1.07038 14.211926,11.285941 0 0 0 0.580053,1.02981 14.211926,11.285941 0 0 0 0.706924,0.97895 14.211926,11.285941 0 0 0 0.826362,0.91723 14.211926,11.285941 0 0 0 0.937802,0.84751 14.211926,11.285941 0 0 0 1.039523,0.76921 14.211926,11.285941 0 0 0 1.130964,0.68292 14.211926,11.285941 0 0 0 1.210968,0.5892 14.211926,11.285941 0 0 0 1.278974,0.4909 14.211926,11.285941 0 0 0 1.33441,0.38689 14.211926,11.285941 0 0 0 1.376699,0.27889 14.211926,11.285941 0 0 0 1.404701,0.16858 14.211926,11.285941 0 0 0 1.418415,0.0566 14.211926,11.285941 0 0 0 1.005808,-0.028 14.211926,11.285941 0 0 0 1.409844,-0.13602 14.211926,11.285941 0 0 0 1.386417,-0.24745 14.211926,11.285941 0 0 0 1.348124,-0.35546 14.211926,11.285941 0 0 0 1.296691,-0.46061 14.211926,11.285941 0 0 0 1.232114,-0.56177 14.211926,11.285941 0 0 0 1.155533,-0.65606 14.211926,11.285941 0 0 0 1.067528,-0.74464 14.211926,11.285941 0 0 0 0.968089,-0.82522 14.211926,11.285941 0 0 0 0.859508,-0.89837 14.211926,11.285941 0 0 0 0.742928,-0.9618 14.211926,11.285941 0 0 0 0.617772,-1.01552 14.211926,11.285941 0 0 0 0.486901,-1.05953 14.211926,11.285941 0 0 0 0.35146,-1.09324 14.211926,11.285941 0 0 0 0.212591,-1.11553 14.211926,11.285941 0 0 0 0.07086,-1.12697 14.211926,11.285941 0 0 0 -0.03543,-0.79836 14.211926,11.285941 0 0 0 -0.171445,-1.11953 14.211926,11.285941 0 0 0 -0.310886,-1.10067 14.211926,11.285941 0 0 0 -0.448041,-1.07096 14.211926,11.285941 0 0 0 -0.580627,-1.02923 14.211926,11.285941 0 0 0 -0.05029,-0.0692 c -2.264619,-0.14584 -4.523933,-0.24574 -6.763484,-0.24574 -6.922043,0 -13.248274,0.25133 -18.909176,0.9858 z"
       id="path853" />
    <path
       inkscape:connector-curvature="0"
       style="opacity:1;fill:#ff9955;fill-opacity:1;stroke:#000000;stroke-width:3.21858311;stroke-miterlimit:4;stroke-dasharray:none;stroke-opacity:1"
       d="m 86.635589,170.80411 a 33.857824,31.349837 0 0 0 -0.939516,2.3825 33.857824,31.349837 0 0 0 -0.837218,3.03628 33.857824,31.349837 0 0 0 -0.505762,3.09857 33.857824,31.349837 0 0 0 -0.169157,3.12944 33.857824,31.349837 0 0 0 0.08515,2.21792 33.857824,31.349837 0 0 0 0.407467,3.11057 33.857824,31.349837 0 0 0 0.74121,3.05742 33.857824,31.349837 0 0 0 1.067528,2.97399 33.857824,31.349837 0 0 0 1.382414,2.86027 33.857824,31.349837 0 0 0 1.683585,2.71853 33.857824,31.349837 0 0 0 1.968752,2.54881 33.857824,31.349837 0 0 0 2.233922,2.35393 33.857824,31.349837 0 0 0 2.476228,2.1362 33.857824,31.349837 0 0 0 2.693963,1.89675 33.857824,31.349837 0 0 0 2.885405,1.63786 33.857824,31.349837 0 0 0 3.04771,1.36299 33.857824,31.349837 0 0 0 3.17916,1.07438 33.857824,31.349837 0 0 0 3.27916,0.7755 33.857824,31.349837 0 0 0 3.34602,0.46805 33.857824,31.349837 0 0 0 3.38031,0.15658 33.857824,31.349837 0 0 0 2.39508,-0.0783 33.857824,31.349837 0 0 0 3.35974,-0.37775 33.857824,31.349837 0 0 0 3.30202,-0.68635 33.857824,31.349837 0 0 0 3.21172,-0.98809 33.857824,31.349837 0 0 0 0.002,-0.001 c -7.83084,-19.90374 -24.46039,-33.3697 -43.67723,-40.86489 z"
       id="path815" />
  </g>
</svg>
